<?xml version="1.0" standalone="no"?> <!DOCTYPE svg PUBLIC "-//W3C//DTD SVG 1.0//EN" "http://www.w3.org/TR/2001/REC-SVG-20010904/DTD/svg10.dtd" > <svg xmlns="http://www.w3.org/2000/svg" width="100%" height="100%">
<defs >
<font id="americantypewriter" horiz-adv-x="479" ><font-face
    font-family="American Typewriter"
    units-per-em="1000"
    panose-1="2 9 6 4 2 0 4 2 3 4"
    ascent="905"
    descent="-251"
    alphabetic="0" />
<missing-glyph horiz-adv-x="500" d="M63 0V758H438V0H63ZM125 63H375V696H125V63Z" />
<glyph unicode=" " glyph-name="space" horiz-adv-x="250" />
<glyph unicode="!" glyph-name="exclam" horiz-adv-x="419" d="M235 -17T209 -17T165 1T147 46T165 90T209 109T253 91T272 46T254 2ZM174 413L172 523Q172 564 170 616Q169 624 169 635Q169 689 211 689Q254 689 254 631Q254 620 253 611Q252 606 250 523L247
415V227Q247 192 246 184Q242 156 225 153Q219 152 210 152Q174 152 174 202V413Z" />
<glyph unicode="&quot;" glyph-name="quotedbl" horiz-adv-x="329" d="M134 667L120 399H66L53 667H134ZM276 667L263 399H209L196 667H276Z" />
<glyph unicode="#" glyph-name="numbersign" horiz-adv-x="600" d="M438 274H548L537 207H428L396 0H321L353 207H218L186 0H112L144 207H32L42 274H154L174 406H63L73 473H184L214 667H289L259 473H393L423 667H498L469 473H577L567 406H458L438 274ZM363 274L383
406H249L229 274H363Z" />
<glyph unicode="$" glyph-name="dollar" horiz-adv-x="637" d="M468 540Q447 604 354 605V381L379 375Q457 357 487 342T543 293Q574 252 574 196Q574 143 545 98T468 30Q424 9 354 -4V-89Q354 -115 326 -115T298 -89V-4Q224 1 173 22T93 84T63 172Q63 213 83
238T136 263Q158 263 173 249T188 212Q188 169 136 166Q141 119 184 91T298 62V314L283 318Q202 340 173 353Q137 369 117 398Q94 431 94 482Q94 534 123 579T198 644Q237 661 298 671V751Q298 781 326 781T354 751V671Q444 661 497 621T550 523Q550 497 534 480T494
462Q474 462 460 475T446 506Q446 526 468 540ZM298 393V605Q242 603 207 573T171 497Q171 457 195 436T280 398Q285 397 298 393ZM354 302V62Q415 63 455 98T496 186Q496 235 467 261T371 299Q367 300 354 302Z" />
<glyph unicode="%" glyph-name="percent" horiz-adv-x="801" d="M202 15L476 543Q446 524 420 524Q373 524 348 559Q356 523 356 486Q356 392 313 337T194 282Q122 282 79 337T35 483Q35 578 79 633T200 689Q240 689 264 678T327 629Q377 581 422 581Q492 581
543 672Q559 701 586 701Q614 701 614 686Q614 684 612 676L603 659L261 3Q250 -19 243 -25Q233 -35 214 -35Q188 -35 188 -18Q188 -11 194 0L202 15ZM441 172Q441 270 486 327T608 385Q682 385 724 332T766 184Q766 92 722 35T606 -22Q529 -22 485 30T441 172ZM289
484Q289 632 199 632Q102 632 102 482Q102 414 127 377T197 339Q289 339 289 484ZM699 182Q699 328 609 328Q562 328 535 288T508 176Q508 110 533 73T604 35Q648 35 673 74T699 182Z" />
<glyph unicode="&amp;" glyph-name="ampersand" horiz-adv-x="819" d="M459 569Q459 458 315 384L326 366Q353 321 422 223L433 209L439 226L478 329Q548 513 677 513Q737 513 774 479T811 388Q811 335 776 299T689 262Q651 262 627 281T603 331Q603 379 645 379Q681
379 681 346Q681 342 676 330Q690 328 692 328Q711 328 725 344T739 383Q739 412 721 429T670 447Q618 447 585 390Q558 344 519 237Q498 179 480 147Q523 99 552 83T625 67Q634 67 651 69T678 71Q719 71 719 34Q719 -1 677 -1H661Q647 0 633 0H580Q511 0 433 81Q406
50 387 37Q325 -6 244 -6Q153 -6 95 49T37 191Q37 308 135 370Q168 391 196 405L208 411Q155 507 155 565Q155 625 196 662T306 699Q377 699 418 664T459 569ZM237 569Q237 531 281 444Q378 490 378 562Q378 594 359 613T306 633Q275 633 256 616T237 569ZM282
280Q258 317 239 350Q201 332 177 311Q122 264 122 192Q122 136 157 102T250 67Q335 67 387 136Q320 222 282 280Z" />
<glyph unicode="&apos;" glyph-name="quotesingle" horiz-adv-x="187" d="M134 667L120 399H66L53 667H134Z" />
<glyph unicode="(" glyph-name="parenleft" horiz-adv-x="455" d="M67 248V267Q67 441 178 561Q241 629 317 666Q380 697 409 697Q428 697 428 683Q428 672 402 659Q306 612 234 525Q150 424 150 275Q150 74 252 -46Q324 -131 408 -171Q436 -184 436 -197T418
-210Q383 -210 311 -171Q195 -108 132 4Q72 110 67 248Z" />
<glyph unicode=")" glyph-name="parenright" horiz-adv-x="455" d="M264 565Q381 438 387 239Q388 233 388 220Q388 46 276 -75Q216 -140 137 -179Q74 -210 45 -210Q26 -210 26 -196Q26 -185 52 -172Q150 -122 221 -38Q305 62 305 212Q305 413 203 533Q131 617
46 658Q18 671 18 683Q18 697 36 697Q71 697 142 659T264 565Z" />
<glyph unicode="*" glyph-name="asterisk" horiz-adv-x="637" d="M349 629L332 537Q332 532 337 532Q340 532 352 543L410 597Q429 615 450 615Q483 615 483 586T444 542L369 514Q352 507 352 502Q352 498 369 491L444 463Q483 448 483 420Q483 390 450 390Q429
390 410 408L352 462Q340 473 337 473Q332 473 332 468V464L334 452L349 376Q351 366 351 359Q351 317 318 317T285 359Q285 367 287 376L303 452Q305 462 305 467Q305 473 300 473Q297 473 285 462L227 408Q208 390 186 390Q154 390 154 419T193 463L267 491Q284
498 284 502Q284 508 267 514L193 542Q154 557 154 585Q154 614 187 614Q209 614 227 597L285 543Q297 532 300 532Q305 532 305 538Q305 543 303 553L287 629Q285 638 285 646Q285 689 318 689T351 646Q351 639 349 629Z" />
<glyph unicode="+" glyph-name="plus" horiz-adv-x="500" d="M33 299V367H213V538H287V367H467V299H287V128H213V299H33Z" />
<glyph unicode="," glyph-name="comma" horiz-adv-x="273" d="M149 -34Q149 -17 132 -17H112Q89 -17 74 0T58 42Q58 71 78 90T128 110Q164 110 186 82T208 9Q208 -67 149 -148Q123 -183 105 -183Q85 -183 85 -163Q85 -156 93 -145Q149 -71 149 -34Z" />
<glyph unicode="-" glyph-name="hyphen" horiz-adv-x="309" d="M37 232T37 267T77 302H233Q273 302 273 268Q273 232 233 232H77Q37 232 37 267Z" />
<glyph unicode="." glyph-name="period" horiz-adv-x="273" d="M162 -17T136 -17T92 1T74 46T92 90T136 109T180 91T198 46T180 2Z" />
<glyph unicode="/" glyph-name="slash" horiz-adv-x="400" d="M348 629L62 -104Q49 -137 35 -178Q26 -203 8 -203H-24Q-39 -203 -39 -192Q-39 -188 -36 -183L-26 -158L-14 -129L246 536L280 629L294 668Q302 689 323 689H353Q366 689 366 678Q366 673 357 651L348 629Z" />
<glyph unicode="0" glyph-name="zero" horiz-adv-x="637" d="M314 -22Q187 -22 115 71T42 329Q42 496 117 592T324 689Q449 689 521 597T594 346Q594 175 519 77T314 -22ZM322 615Q138 615 131 340V325Q131 194 179 123T315 51Q405 51 456 129T507 344Q507 475
459 545T322 615Z" />
<glyph unicode="1" glyph-name="one" horiz-adv-x="637" d="M283 231L280 521Q279 572 270 589T232 606Q222 606 203 604T174 601Q135 601 135 636T172 671Q184 671 209 669T249 666Q281 666 302 668Q333 671 340 671Q362 671 367 658Q371 649 371 627Q371 624
370 603Q365 496 365 409V296Q365 265 366 213Q368 150 368 130Q369 61 414 61Q425 61 447 63T480 66Q528 66 528 31T484 -4Q467 -4 452 -2Q368 9 324 9T216 0Q180 -5 165 -5Q122 -5 122 31Q122 66 171 66Q186 66 202 63Q226 61 232 61Q267 61 275 88T283 231Z"
/>
<glyph unicode="2" glyph-name="two" horiz-adv-x="637" d="M123 119Q168 167 232 167Q291 167 356 115Q428 58 467 58Q495 58 512 76T530 124Q530 134 526 146Q510 130 490 130Q447 130 447 172Q447 195 464 210T509 225Q546 225 568 199T591 128Q591 66 552
22T457 -22Q404 -22 330 35T199 92T129 50Q139 52 141 52Q170 52 170 23Q170 -22 120 -22Q87 -22 67 6T46 83Q46 258 287 335L359 358Q480 397 480 489Q480 551 437 587T317 623Q250 623 206 596T154 522Q208 518 208 475Q208 449 189 431T142 412Q108 412 88 435T67
497Q67 579 141 634T324 689Q430 689 497 634T565 490Q565 430 533 384T442 315Q424 308 322 273Q249 248 205 225Q173 208 151 182T123 119Z" />
<glyph unicode="3" glyph-name="three" horiz-adv-x="637" d="M250 389L458 593H226Q187 593 174 588Q149 580 149 549Q149 539 151 520T153 491Q153 439 118 439Q84 439 84 482Q84 494 85 518T87 555Q87 583 86 597T85 628Q85 655 95 661T145 668H391Q411 668
459 670Q483 671 515 671Q574 671 574 635Q574 612 549 588L365 411Q371 411 381 412H394Q479 412 533 358T588 218Q588 112 511 45T311 -22Q199 -22 124 32T49 169Q49 216 76 248T143 281Q169 281 185 266T202 225Q202 175 143 175H132V168Q132 119 186 83T315
47Q398 47 451 94T504 216Q504 346 356 346Q317 346 275 337Q266 335 258 335Q234 335 234 361Q234 373 250 389Z" />
<glyph unicode="4" glyph-name="four" horiz-adv-x="637" d="M453 618V273H571Q604 273 604 239T569 205H453V144Q453 61 498 61Q510 61 531 63L552 65Q594 65 594 31Q594 -4 558 -4Q536 -4 499 2Q468 7 422 7Q394 7 338 1T254 -5Q216 -5 216 29Q216 65 262 65Q272
65 291 63T321 61Q371 61 371 144V205H61Q15 205 15 245Q15 261 26 277L291 606Q333 658 353 673T399 689Q453 689 453 618ZM112 273H371L378 600L112 273Z" />
<glyph unicode="5" glyph-name="five" horiz-adv-x="637" d="M186 557L174 397Q252 451 346 451Q458 451 523 392T588 229Q588 117 511 48T308 -22Q205 -22 134 28T62 152Q62 188 85 212T141 237Q167 237 183 222T200 182Q200 165 189 153T161 140Q149 139 149
133Q149 100 201 74T319 47Q399 47 450 96T502 223Q502 297 459 339T339 382Q246 382 191 328Q169 307 160 301T137 292H133Q94 292 94 336Q94 338 95 340L109 533Q110 549 111 588Q112 643 119 655T156 668Q168 668 174 667L223 668H281H404Q433 668 448 669Q478
671 489 671Q529 671 529 612L528 605Q528 579 536 544Q540 532 540 522Q540 490 506 490Q474 490 472 537Q470 593 423 593H214Q189 593 186 557Z" />
<glyph unicode="6" glyph-name="six" horiz-adv-x="637" d="M342 623Q252 623 196 548T133 342Q196 451 341 451Q450 451 519 387T588 223Q588 116 514 47T324 -22Q196 -22 123 63T49 295Q49 476 130 582T348 689Q432 689 491 647T550 545Q550 517 531 497T485
477Q464 477 449 492T433 530Q433 560 461 570Q431 623 342 623ZM327 383Q246 383 199 339T152 218Q152 140 199 94T326 47Q403 47 451 95T500 219Q500 293 453 338T327 383Z" />
<glyph unicode="7" glyph-name="seven" horiz-adv-x="637" d="M139 629L137 618Q162 658 182 672T236 686Q285 686 351 635Q425 578 465 578Q507 578 517 606H509Q495 606 484 618T472 645Q472 664 486 677T521 691Q587 691 587 602Q587 536 554 486Q533 455 509
432Q498 421 465 392Q397 333 372 283Q336 212 336 111Q336 113 337 89Q339 41 339 46Q339 -17 289 -17Q237 -17 237 65Q237 194 285 290Q324 368 451 472Q503 515 510 543Q476 514 424 514Q360 514 299 560L258 591Q236 607 209 607Q145 607 145 525Q145 500 149
480Q156 445 156 428T145 399T116 387Q76 387 76 430Q76 447 81 482T87 536Q87 564 83 596T79 652Q79 693 114 693Q143 693 143 658Q143 651 139 629Z" />
<glyph unicode="8" glyph-name="eight" horiz-adv-x="637" d="M121 341Q147 361 191 377Q136 408 116 436T96 510Q96 586 160 637T319 689T477 638T542 510Q542 465 522 437T447 377Q489 361 516 341Q586 288 586 194Q586 98 513 38T322 -22Q199 -22 125 37T51
194Q51 287 121 341ZM319 618Q259 618 221 588T182 510Q182 468 220 442T319 415T417 441T455 511Q455 558 417 588T319 618ZM323 339Q237 339 189 301T140 195Q140 130 189 90T319 49T448 89T498 195T450 299T323 339Z" />
<glyph unicode="9" glyph-name="nine" horiz-adv-x="637" d="M286 43Q380 43 435 117T493 322Q437 220 294 220Q190 220 125 282T60 445Q60 550 131 619T312 689Q436 689 507 602T578 361Q578 182 499 80T281 -22Q193 -22 132 20T70 123Q70 152 88 171T134 191Q156
191 172 177T188 142Q188 113 159 99Q190 43 286 43ZM314 618Q239 618 193 571T146 449Q146 376 190 333T308 290Q386 290 430 333T475 450Q475 526 431 572T314 618Z" />
<glyph unicode=":" glyph-name="colon" horiz-adv-x="273" d="M162 -17T136 -17T92 1T74 46T92 90T136 109T180 91T198 46T180 2ZM162 321T136 321T92 339T74 384T92 428T136 447T180 429T198 384T180 340Z" />
<glyph unicode=";" glyph-name="semicolon" horiz-adv-x="273" d="M149 -34Q149 -17 132 -17H112Q89 -17 74 0T58 42Q58 71 78 90T128 110Q164 110 186 82T208 9Q208 -67 149 -148Q123 -183 105 -183Q85 -183 85 -163Q85 -156 93 -145Q149 -71 149 -34ZM152 321T126
321T82 339T64 384T82 428T126 447T170 429T189 384T171 340Z" />
<glyph unicode="&lt;" glyph-name="less" horiz-adv-x="500" d="M33 362L467 565V492L112 330L466 168L467 95L33 298V362Z" />
<glyph unicode="=" glyph-name="equal" horiz-adv-x="500" d="M33 386V451H467V386H33ZM33 233V298H467V233H33Z" />
<glyph unicode="&gt;" glyph-name="greater" horiz-adv-x="500" d="M467 298L33 95V169L388 330L34 492L33 565L467 362V298Z" />
<glyph unicode="?" glyph-name="question" horiz-adv-x="600" d="M308 -17T282 -17T238 1T219 46T237 90T282 109T326 91T344 46T326 2ZM138 503Q138 477 164 460Q163 464 163 470Q163 484 173 493T200 503Q244 503 244 459Q244 430 221 411T164 391Q120 391 92
420T63 496Q63 580 134 634T318 689Q429 689 496 637T564 500Q564 393 458 339Q440 330 412 318Q353 293 332 270T310 209Q310 181 305 171Q297 156 273 156Q231 156 231 208Q231 256 255 290Q285 331 365 375Q437 414 458 438T479 503Q479 558 434 591T315 625Q240
625 189 590T138 503Z" />
<glyph unicode="@" glyph-name="at" horiz-adv-x="692" d="M397 201Q397 209 398 215Q360 156 281 156Q233 156 204 188T174 273Q174 364 240 433T393 503Q413 503 437 497L457 492Q461 490 467 490Q472 490 484 495Q500 502 507 502Q522 502 522 489Q522 486
520 478L515 459L458 246Q455 234 455 227Q455 209 474 209Q511 209 543 257Q588 324 588 412Q588 495 534 550T396 605Q279 605 193 512T106 292Q106 194 169 129T327 63Q383 63 419 76T511 130Q531 145 544 145Q563 145 563 127Q563 108 537 88Q438 10 319 10Q198
10 118 90T37 292Q37 438 145 546T402 655Q514 655 584 589T655 417Q655 298 568 209Q515 155 457 155Q431 155 414 168T397 201ZM418 337L445 437Q415 452 387 452Q329 452 286 401T242 282Q242 213 302 213Q385 213 418 337Z" />
<glyph unicode="A" glyph-name="A" horiz-adv-x="746" d="M523 113L487 211Q481 227 475 231T448 235H270Q250 235 243 228T223 190L194 113Q190 102 190 92Q190 60 229 60Q239 60 257 62T285 64Q326 64 326 29Q326 -4 281 -4Q273 -4 259 -2L209 5Q195 7 163 7Q128
7 114 5L72 -1Q44 -5 31 -5Q-8 -5 -8 28Q-8 63 30 63Q38 63 42 62H55Q82 62 96 83Q102 91 116 130L302 633Q318 675 365 675Q411 675 426 633L605 137Q622 90 636 75T676 60Q684 60 688 61L716 63Q754 63 754 31Q754 -3 716 -3Q705 -3 687 -1Q624 6 593 6Q556 6
473 -2Q452 -4 441 -4Q401 -4 401 30T445 64Q454 64 471 62T498 60Q531 60 531 87Q531 91 523 113ZM451 317L361 593L269 317Q267 311 267 310Q267 301 282 301H441Q453 301 453 309Q453 311 451 317Z" />
<glyph unicode="B" glyph-name="B" horiz-adv-x="692" d="M607 510Q607 408 491 366Q533 353 560 337Q641 290 641 196Q641 104 570 50T380 -5Q337 -5 271 0T174 5Q147 5 123 2L76 -4Q74 -4 69 -5H62Q19 -4 19 31Q19 63 50 63Q58 63 77 60Q90 58 98 58Q149 58
149 132V534Q149 609 98 609Q89 609 77 607Q59 604 50 604Q19 604 19 636Q19 671 65 671H78L127 664Q148 661 184 661Q222 661 292 667Q339 671 393 671Q494 671 550 629T607 510ZM224 467Q224 414 233 402T286 389H342Q519 389 519 504Q519 609 373 609Q271 609
248 596T224 529V467ZM224 264V153Q224 88 246 73T366 58Q553 58 553 198Q553 327 373 327H290Q236 327 228 303Q224 291 224 264Z" />
<glyph unicode="C" glyph-name="C" horiz-adv-x="637" d="M338 689Q449 689 519 604L518 615V626Q517 632 517 633Q515 655 515 653Q515 687 547 687Q581 687 581 645Q581 637 577 597Q572 547 572 528Q572 501 575 473L579 435V425Q579 380 543 380Q504 380 505
423L506 459Q508 531 461 576T338 621Q239 621 183 545T127 335Q127 198 184 122T345 45Q401 45 445 72T508 143Q520 172 520 221Q520 267 558 267Q599 267 599 221Q599 114 525 46T334 -22Q199 -22 119 73T38 326Q38 489 120 589T338 689Z" />
<glyph unicode="D" glyph-name="D" horiz-adv-x="728" d="M149 534Q149 609 98 609Q89 609 77 607Q59 604 50 604Q19 604 19 636Q19 671 64 671Q69 671 77 670L130 663Q160 659 194 659Q222 659 250 662L315 669Q334 671 365 671Q456 671 517 645Q597 611 643
527T690 332Q690 234 653 156T552 40Q475 -5 366 -5Q344 -5 321 -3L252 3Q217 6 179 6Q146 6 125 3L77 -4Q75 -4 70 -5H62Q19 -5 19 30Q19 44 28 53T50 63Q61 63 77 60Q84 58 98 58Q149 58 149 133V534ZM233 544V121Q233 75 278 65Q293 61 362 61Q482 61 536 126Q601
204 601 332Q601 432 562 501T453 591Q409 604 347 604Q268 604 251 595T233 544Z" />
<glyph unicode="E" glyph-name="E" horiz-adv-x="673" d="M149 534Q149 608 98 608Q84 608 77 606Q61 603 50 603Q37 603 28 612T19 636Q19 671 61 671Q62 671 76 670Q226 660 216 660H226L467 667Q474 667 519 670Q535 671 548 671Q600 671 600 625Q600 617 596
574Q593 542 593 515Q593 480 595 466Q599 437 599 423Q599 385 563 385T527 438V490Q527 574 492 589Q466 600 358 600Q287 600 274 597Q231 586 231 537V492V470Q230 456 230 450V437Q230 397 248 391Q255 389 272 389H313Q376 389 376 432Q376 444 373 463T370
497Q370 537 406 537T442 494Q442 486 435 432Q429 386 429 351Q429 331 433 280Q434 272 438 245Q441 223 441 210Q441 174 405 174Q370 174 370 216Q370 227 372 248T375 280Q375 323 318 323H273Q244 323 238 313T231 270V208Q231 192 232 165Q233 132 233 121Q234
81 249 71Q260 64 301 64H437Q496 64 518 81T540 147Q540 162 539 191T537 236Q537 281 573 281Q611 281 611 235Q611 217 609 180T607 125Q607 111 608 84T610 42Q610 -5 564 -5Q553 -5 529 -3Q517 -2 485 -2Q492 -2 407 0T260 2Q166 2 76 -4Q72 -4 67 -5H61Q19
-5 19 31Q19 63 50 63Q55 63 77 61Q88 58 98 58Q149 58 149 133V534Z" />
<glyph unicode="F" glyph-name="F" horiz-adv-x="619" d="M148 291V375L147 534Q147 608 96 608Q83 608 76 606Q60 603 50 603Q37 603 28 612T19 636Q19 671 61 671Q66 671 76 670L145 663Q184 659 232 659Q258 659 344 662L459 666Q482 667 513 669Q527 670 543
670Q596 670 596 623Q596 605 591 568T586 512Q586 496 588 472T590 428Q590 387 554 387Q517 387 517 434Q517 448 518 477T520 520Q520 573 490 587T348 601Q253 601 240 584Q230 571 230 492V418Q230 390 237 384T279 377H312Q377 377 377 425Q377 436 375 455T372
484Q372 522 408 522Q442 522 442 478Q442 472 440 454L434 400Q430 364 430 346Q430 305 439 242Q442 221 442 202Q442 163 406 163Q372 163 372 205Q372 215 373 235T375 265Q375 296 358 305Q347 312 312 312H281Q246 312 238 304T230 260V141Q230 94 240 78T280
61Q287 61 302 62T324 63Q370 63 370 29Q370 15 360 5T334 -5Q318 -5 287 0Q243 7 187 7Q151 7 110 1L76 -4Q73 -4 69 -5H63Q19 -5 19 31Q19 63 50 63Q54 63 76 61Q87 58 97 58Q124 58 134 74T146 133L148 291Z" />
<glyph unicode="G" glyph-name="G" horiz-adv-x="710" d="M335 689Q435 689 516 614Q514 628 514 630Q512 650 512 652Q512 685 545 685Q581 685 581 642Q581 628 580 621L573 573Q570 552 570 528Q570 509 574 447V438Q574 393 537 393Q502 393 502 442V472Q502
541 457 581T334 621Q237 621 182 546T127 340Q127 201 183 123T340 45Q417 45 459 90T501 218Q501 252 490 265T449 279Q441 279 426 278T403 277Q355 277 355 311Q355 346 396 346Q409 346 425 344Q488 336 526 336Q575 336 630 345Q642 347 657 347Q697 347
697 314Q697 300 687 290T662 280Q650 280 644 281Q642 281 637 282H629Q585 282 585 184V104Q585 78 587 57T589 24Q589 -17 553 -17Q518 -17 518 18L520 42Q521 51 522 73Q499 42 486 30Q428 -22 325 -22Q196 -22 117 74T38 325Q38 491 118 590T335 689Z" />
<glyph unicode="H" glyph-name="H" horiz-adv-x="783" d="M231 385H551V532Q551 607 500 607Q494 607 479 604T452 601Q420 601 420 634Q420 670 463 670Q477 670 514 664T582 658Q632 658 682 665Q711 669 720 669Q764 669 764 634Q764 602 733 602Q725 602 709
604T685 607Q634 607 634 532V133Q634 58 684 58Q692 58 708 60T733 63Q764 63 764 31Q764 -5 720 -5Q711 -5 681 1Q646 8 605 8Q550 8 512 2Q468 -5 464 -5Q420 -5 420 31Q420 64 452 64Q460 64 476 62T500 59Q542 59 550 114Q551 121 551 204V317H231V203Q231
120 232 113Q240 58 282 58Q290 58 306 60T331 63Q362 63 362 31Q362 -5 318 -5Q311 -5 275 1Q227 9 191 9Q149 9 101 1L77 -3Q65 -5 64 -5Q18 -5 18 31Q18 44 27 54T50 64Q59 64 77 61Q88 58 98 58Q149 58 149 133V534Q149 609 98 609Q91 609 76 606T50 603Q37
603 28 613T18 636Q18 671 64 671Q73 671 101 666Q139 659 194 659Q215 659 256 665T318 671Q362 671 362 635Q362 621 353 612T331 602Q320 602 304 605T282 608Q233 608 232 533L231 385Z" />
<glyph unicode="I" glyph-name="I" horiz-adv-x="382" d="M149 534Q149 608 98 608Q84 608 77 606Q61 603 50 603Q37 603 28 612T19 636Q19 671 63 671Q69 671 77 670L130 663Q160 659 192 659Q223 659 260 664L305 670Q313 671 319 671Q363 671 363 636Q363 622
354 613T332 603Q322 603 305 606Q298 608 284 608Q233 608 233 534V133Q233 58 284 58Q292 58 305 60Q324 63 332 63Q363 63 363 31Q363 -5 319 -5H312Q308 -4 305 -4L253 4Q227 8 198 8Q156 8 123 3L77 -4Q75 -4 70 -5H62Q19 -5 19 31Q19 63 50 63Q55 63 77 61Q88
58 98 58Q149 58 149 133V534Z" />
<glyph unicode="J" glyph-name="J" horiz-adv-x="619" d="M155 223Q155 239 169 250Q160 255 154 255Q132 255 116 232T99 177Q99 122 142 86T252 50Q403 50 420 186Q427 243 427 343V375L426 534Q426 608 375 608Q361 608 354 606Q338 603 327 603Q314 603 305
612T296 636Q296 671 340 671Q346 671 354 670L407 663Q437 659 469 659Q499 659 537 664L583 670Q587 671 597 671Q641 671 641 636Q641 603 609 603Q599 603 582 606Q575 608 561 608Q510 608 510 534V343Q510 193 498 142Q487 97 453 59Q380 -22 255 -22Q150
-22 85 32T19 173Q19 237 59 280T160 324Q203 324 230 302T257 243Q257 218 241 200T203 181Q184 181 170 193T155 223Z" />
<glyph unicode="K" glyph-name="K" horiz-adv-x="783" d="M233 340L515 580Q526 589 526 597Q526 608 507 608Q499 608 496 607Q460 603 443 603Q407 603 407 638Q407 671 450 671Q473 671 491 669L544 663Q579 659 597 659Q633 659 686 667Q713 671 726 671Q764
671 764 637T729 603Q726 603 719 604H708Q703 605 693 605Q655 605 625 580L436 422Q424 412 424 404Q424 399 434 387L449 364L609 146Q673 59 705 59Q707 59 711 60H716Q743 63 749 63Q785 63 785 29T746 -5L696 1Q659 5 612 5Q558 5 499 -1Q460 -5 455 -5Q418
-5 418 28Q418 64 457 64Q468 64 488 62Q527 58 533 58Q557 58 557 68Q557 75 548 87L362 340Q356 348 351 348Q347 348 338 340L233 248Q232 230 232 207Q232 120 233 114Q241 57 283 57Q289 57 305 60T332 63Q345 63 354 54T363 30Q363 -5 319 -5H312Q308 -4
305 -4L249 4Q228 7 184 7Q152 7 131 4L76 -4Q74 -4 70 -5H64Q19 -5 19 30Q19 62 50 62Q59 62 77 59Q89 57 98 57Q148 57 148 132Q148 130 149 202V290V374V463L148 533Q148 608 98 608Q88 608 77 605Q59 602 50 602Q18 602 18 635Q18 670 63 670Q68 670 76 669L124
663Q156 659 178 659Q205 659 259 665T321 671Q363 671 363 636Q363 622 354 613T332 603Q322 603 305 606Q298 608 284 608Q249 608 240 584T232 464L233 340Z" />
<glyph unicode="L" glyph-name="L" horiz-adv-x="637" d="M233 144Q233 85 245 74Q254 65 268 63T334 61H422Q491 61 514 79T537 154Q537 169 536 189Q534 228 534 236Q534 280 569 280Q611 280 611 240Q611 228 610 221L603 170Q600 148 600 124Q600 110 602
83T605 41Q605 -4 554 -4Q544 -4 508 -2Q484 -1 434 0L359 1H199Q175 1 119 -1Q111 -1 92 -3T61 -5Q19 -5 19 31Q19 63 50 63Q58 63 74 61T98 58Q149 58 149 133V534Q149 608 98 608Q84 608 77 606Q61 603 50 603Q37 603 28 612T19 636Q19 671 62 671Q68 671 77
670L130 664Q174 659 195 659Q221 659 259 664L305 670Q313 671 318 671Q363 671 363 636Q363 622 354 613T332 603Q322 603 305 606Q298 608 284 608Q233 608 233 534V144Z" />
<glyph unicode="M" glyph-name="M" horiz-adv-x="947" d="M319 596L473 90L642 629Q655 671 687 671H692Q702 671 718 668Q738 663 744 663Q760 661 788 661Q818 661 835 664L870 670Q873 671 882 671Q928 671 928 636Q928 604 896 604Q888 604 873 606T849 609Q798
609 798 534V464L797 376V291L798 133Q798 58 848 58Q858 58 870 61Q892 63 896 63Q928 63 928 31Q928 -5 885 -5Q887 -5 870 -3Q801 5 753 5Q706 5 663 -2Q645 -5 631 -5Q592 -5 592 28Q592 62 632 62Q642 62 647 61Q669 59 673 59Q709 59 718 134Q720 150 720
236Q720 269 721 332L723 422V599Q723 605 718 605Q715 605 712 599L528 28Q516 -10 472 -10Q446 -10 434 -3T414 28L233 599Q230 605 226 605T222 599L228 134Q229 61 268 61Q279 61 298 65H310Q349 65 349 30T309 -5Q302 -5 288 -3Q266 0 241 4Q221 7 190 7Q135
7 119 4L77 -4Q75 -4 71 -5H65Q19 -5 19 30Q19 44 28 53T50 63Q61 63 76 60T98 57Q149 57 149 132V534Q149 609 98 609Q90 609 74 607T50 604Q19 604 19 636Q19 671 64 671Q68 671 77 670L112 666Q138 663 161 663Q180 663 212 667T260 671Q299 671 312 622L319
596Z" />
<glyph unicode="N" glyph-name="N" horiz-adv-x="764" d="M296 626L565 67V470Q565 548 564 556Q555 608 514 608Q506 608 490 606T466 603Q453 603 444 612T434 635Q434 671 479 671Q488 671 492 670L537 664Q567 660 593 660T662 666Q677 668 697 671Q699 671
704 672H711Q754 672 754 637Q754 603 714 603Q707 603 703 604H693Q663 604 654 591T643 534L641 477L639 375V108Q639 39 624 11T570 -17Q521 -17 487 53L225 598V133Q225 58 276 58Q284 58 300 60T324 63Q356 63 356 30Q356 -5 311 -5H305Q300 -4 298 -4L257
2Q223 7 193 7Q167 7 126 2L77 -4Q75 -4 70 -5H62Q19 -5 19 30Q19 61 51 61Q56 61 78 59Q89 56 99 56Q150 56 150 131V201L151 289V375L150 533Q150 608 98 608Q91 608 78 606Q59 603 50 603Q18 603 18 636Q18 671 61 671Q67 671 77 670Q127 665 154 665Q169 665
199 668T244 671Q275 671 285 650L296 626Z" />
<glyph unicode="O" glyph-name="O" horiz-adv-x="655" d="M326 -22Q193 -22 116 74T38 334Q38 500 116 594T331 689Q462 689 539 597T617 348Q617 178 539 78T326 -22ZM328 617Q232 617 179 543T126 335Q126 199 179 125T327 50Q420 50 474 127T529 338Q529 472
477 544T328 617Z" />
<glyph unicode="P" glyph-name="P" horiz-adv-x="637" d="M149 133V534Q149 608 98 608Q90 608 77 606Q58 603 50 603Q18 603 18 636Q18 671 62 671Q69 671 77 670L126 664Q150 661 186 661Q211 661 246 664Q328 671 370 671Q434 671 480 661Q546 647 583 599T621
483Q621 389 557 339T370 289H299Q266 289 260 290H258Q242 290 238 285T233 259V239Q233 112 240 85T284 58Q295 58 305 61Q327 63 332 63Q363 63 363 31Q363 -5 319 -5L305 -3L255 4Q234 7 192 7Q157 7 135 4L77 -4Q75 -4 71 -5H64Q19 -5 19 30Q19 44 28 53T50
63Q61 63 77 60Q84 58 98 58Q149 58 149 133ZM240 586Q233 576 233 531V383Q233 356 271 352Q268 352 329 352Q400 352 447 363Q536 384 536 480Q536 607 374 607Q254 607 240 586Z" />
<glyph unicode="Q" glyph-name="Q" horiz-adv-x="655" d="M617 340Q617 106 456 7V-69Q456 -140 514 -140Q547 -140 559 -123Q567 -111 569 -77Q571 -30 605 -30Q644 -30 644 -79Q644 -134 609 -167T516 -201Q390 -201 390 -85V-15Q359 -22 328 -22Q195 -22 117
73T38 329Q38 497 116 593T331 689Q463 689 540 595T617 340ZM457 141V88Q486 124 499 157Q529 237 529 342Q529 473 477 545T331 617Q233 617 178 542T123 332Q123 144 215 71Q188 115 188 155Q188 204 228 237T328 271Q389 271 423 237T457 141ZM329 43Q354 43
391 53V130Q391 209 324 209Q288 209 265 187T242 130Q242 91 266 67T329 43Z" />
<glyph unicode="R" glyph-name="R" horiz-adv-x="728" d="M537 368Q508 354 463 344Q522 333 544 300T567 191V145Q566 141 566 133Q566 61 612 61Q659 61 659 147V177L658 202V216Q658 245 662 256Q670 273 693 273Q729 273 729 231Q729 230 728 209L727 188Q726
167 726 161V136Q727 130 727 118Q727 60 695 28T604 -5Q486 -5 486 114V144L487 178V200Q487 267 462 288T356 310H263Q231 310 231 271V194Q231 120 233 110Q242 60 283 60Q297 60 304 62Q321 65 330 65Q362 65 362 31Q362 -5 319 -5L304 -3L250 4Q219 8 195
8Q165 8 125 3L77 -3Q61 -5 62 -5Q19 -5 19 31Q19 63 50 63Q55 63 77 61Q88 58 98 58Q149 58 149 133V534Q149 609 98 609Q90 609 74 607T50 604Q37 604 28 613T19 636Q19 671 63 671Q67 671 77 670L128 665Q148 663 178 663Q209 663 247 665L323 669Q361 671 393
671Q613 671 613 503Q613 404 537 368ZM260 377H354Q438 377 480 401Q531 430 531 498Q531 612 375 612Q292 612 263 600T232 550L231 518V403Q231 386 237 382T260 377Z" />
<glyph unicode="S" glyph-name="S" horiz-adv-x="619" d="M307 689Q405 689 467 626V640Q467 679 498 679Q532 679 532 636V630Q532 628 529 600T526 533Q526 528 528 501L531 461Q532 456 532 447Q532 399 495 399Q456 399 456 439V444L458 471Q459 485 459 493Q459
553 419 587T307 621Q242 621 204 589T165 503Q165 440 222 410Q254 394 334 381Q453 362 497 329Q563 280 563 190Q563 96 496 37T321 -22Q207 -22 132 50Q132 46 133 41V35Q135 19 135 14Q135 -23 100 -23Q62 -23 62 19Q62 24 63 27L67 79Q70 118 70 129Q70 149
65 189T60 249Q60 294 98 294Q137 294 137 249V231Q136 223 136 208Q136 133 184 89T314 45Q390 45 435 81T480 179Q480 274 360 295L303 305Q218 320 171 340Q128 359 103 399T77 491Q77 579 141 634T307 689Z" />
<glyph unicode="T" glyph-name="T" horiz-adv-x="637" d="M357 132Q357 57 408 57Q416 57 432 59T456 62Q469 62 478 53T488 30Q488 -5 443 -5H437Q432 -4 430 -4L381 3Q353 7 318 7Q280 7 251 3L201 -4Q198 -4 194 -5H187Q143 -5 143 30Q143 62 175 62Q183 62
199 60T223 57Q273 57 273 132V202L274 290V375L273 538Q273 609 200 609H169Q97 609 97 539Q97 514 98 505L102 468Q103 459 103 443Q103 380 64 380Q27 380 27 426Q27 439 29 471Q32 519 32 532Q32 557 30 584Q26 637 26 629Q26 671 64 671Q78 671 129 668Q134
668 211 666L325 664Q345 664 432 666Q451 666 497 669Q538 672 561 672Q611 672 611 631V629Q611 619 609 592L603 534V523Q603 508 606 476Q610 434 610 424Q610 383 571 383Q533 383 533 433Q533 451 536 486T539 540Q539 609 460 609H432Q395 609 379 594T361
542L358 472L357 132Z" />
<glyph unicode="U" glyph-name="U" horiz-adv-x="710" d="M207 513L205 449L201 368V214Q201 144 216 112T275 62Q315 45 357 45Q412 45 451 66T501 122T514 213L516 470Q516 546 514 556Q505 607 463 607Q456 607 443 605Q424 602 416 602Q403 602 394 612T384
635Q384 671 428 671Q435 671 442 670L501 662Q523 659 551 659Q578 659 596 662L639 669Q657 672 663 672Q705 672 705 638T664 604H653Q650 605 643 605Q613 605 606 575T599 421V246Q599 181 595 152Q587 102 561 65Q501 -22 358 -22Q182 -22 131 93Q115 128
115 202Q115 238 118 308T121 415V468Q121 541 120 550Q113 605 81 605H74Q69 604 65 604T52 603Q10 603 10 637T48 671Q64 671 82 668Q131 660 173 660Q216 660 272 669Q284 671 298 671Q339 671 339 637T304 603Q296 603 280 605T256 608Q224 608 213 574Q208
559 207 513Z" />
<glyph unicode="V" glyph-name="V" horiz-adv-x="728" d="M243 510L384 83L518 501Q533 549 533 569Q533 607 493 607Q486 607 471 605T449 602Q410 602 410 637Q410 671 448 671Q469 671 511 665T576 659Q612 659 665 668Q682 671 697 671Q734 671 734 636Q734
602 697 602Q696 602 693 603L670 605H665Q648 605 638 589T608 517L444 36Q427 -13 381 -13Q333 -13 316 36L137 539Q124 576 116 586Q102 603 72 603Q66 603 53 602T34 601Q-5 601 -5 636Q-5 672 35 672Q47 672 62 669Q118 658 161 658Q186 658 235 664T308 671Q345
671 345 638Q345 602 307 602Q305 602 298 603H288Q282 604 271 604Q227 604 227 576Q227 562 232 546L243 510Z" />
<glyph unicode="W" glyph-name="W" horiz-adv-x="928" d="M217 513L299 90L402 610Q415 678 469 678Q526 678 537 618L637 83L722 498Q731 542 731 565Q731 606 689 606Q680 606 663 605T637 604Q594 604 594 638Q594 671 636 671Q652 671 669 669Q751 659 777
659Q797 659 836 665T896 671Q933 671 933 636Q933 604 897 604Q891 604 879 605T861 607Q840 607 831 591T808 519L696 42Q683 -13 634 -13Q582 -13 569 55L468 584L357 41Q346 -13 300 -13Q253 -13 240 42L121 540Q112 578 99 591T56 605H49L27 603Q-5 603 -5
636Q-5 671 30 671Q44 671 62 668Q116 659 167 659Q191 659 277 669Q292 671 306 671Q342 671 342 638Q342 602 298 602Q289 602 271 604T243 606Q208 606 208 573Q208 561 211 545L217 513Z" />
<glyph unicode="X" glyph-name="X" horiz-adv-x="783" d="M169 131L346 349L163 564Q129 604 101 604Q93 604 79 603T56 602Q15 602 15 638Q15 672 58 672Q63 672 121 662Q149 658 177 658Q230 658 295 668Q315 671 330 671Q370 671 370 637Q370 602 330 602Q327
602 321 603H312Q299 605 284 607T263 609Q251 609 251 602Q251 598 257 590L396 408L533 582Q541 592 541 600T528 608Q520 608 513 607Q484 603 467 603Q427 603 427 638Q427 671 464 671Q479 671 502 667Q548 659 598 659Q629 659 685 668Q710 672 717 672Q758
672 758 637T721 602Q714 602 700 604T679 607Q655 607 620 564L444 349L632 121Q681 61 712 61Q714 61 719 62H725Q731 63 741 63Q778 63 778 30Q778 -5 739 -5Q729 -5 704 -1Q647 8 611 8Q571 8 523 0Q493 -5 475 -5Q432 -5 432 31Q432 65 473 65Q490 65 507
64L538 62H545Q561 62 561 72Q561 80 542 104L393 291L247 104Q229 81 229 72Q229 61 243 61H245L268 63L298 65Q313 66 323 66Q367 66 367 31Q367 -5 329 -5Q317 -5 290 0Q241 9 192 9Q136 9 81 -1Q59 -5 46 -5Q4 -5 4 31Q4 66 41 66Q47 66 59 65T78 63Q101 63
117 75T169 131Z" />
<glyph unicode="Y" glyph-name="Y" horiz-adv-x="728" d="M325 199V218Q324 234 324 245L130 552Q111 582 106 587Q91 602 69 602Q57 602 51 601H42Q35 600 32 600Q-14 600 -14 635Q-14 671 26 671Q42 671 66 667Q114 659 156 659Q187 659 249 668Q270 671 285
671Q326 671 326 636Q326 602 277 602L267 603H242L222 604Q210 605 210 596Q210 592 211 591T216 582L369 322L524 582Q529 590 529 598Q529 607 516 607H514L496 606L470 603Q453 601 444 601Q403 601 403 636T443 671Q458 671 479 668Q535 660 576 660Q619 660
671 668Q691 671 705 671Q743 671 743 636Q743 604 706 604Q691 604 683 606Q667 608 661 608Q635 608 619 584L604 561L407 252V210Q407 108 415 83T458 58Q466 58 482 60T507 63Q538 63 538 31Q538 -5 493 -5H487Q483 -4 480 -4L425 3Q394 7 364 7Q332 7 303
3L252 -4Q250 -4 246 -5H239Q194 -5 194 30Q194 63 226 63Q234 63 249 61T273 58Q315 58 324 111Q325 120 325 199Z" />
<glyph unicode="Z" glyph-name="Z" horiz-adv-x="619" d="M563 574L122 59H373Q459 59 485 75T512 142Q512 157 509 183T506 229Q506 269 544 269Q580 269 580 227Q580 216 577 185T574 125Q574 97 575 88Q579 53 579 41Q579 -6 522 -6Q498 -6 476 -5Q386 -1 288
-1Q239 -1 174 -4Q153 -5 120 -5Q73 -5 56 7T39 51Q39 82 62 109L484 607H239Q177 607 155 585T132 504Q132 494 133 473T134 442Q134 392 96 392Q59 392 59 433Q59 452 63 488T67 544Q67 557 65 582T63 621Q63 675 117 673L144 672Q163 671 198 672H233Q258 671
265 671L472 672H512Q584 672 584 622Q584 599 563 574Z" />
<glyph unicode="[" glyph-name="bracketleft" horiz-adv-x="437" d="M110 0V474Q110 505 108 552T106 628Q106 660 115 668Q121 673 135 673Q148 673 173 671T212 668Q263 668 289 671T339 674Q392 674 392 639Q392 606 336 606Q319 606 287 611T238 616Q210 616
201 609T189 574L185 520Q182 480 182 391V83Q182 -6 185 -46L189 -100Q191 -127 202 -135Q210 -141 238 -141Q255 -141 287 -137T336 -132Q392 -132 392 -165Q392 -200 339 -200Q319 -200 279 -197T219 -194H211Q198 -194 173 -196T135 -199Q115 -199 109 -185Q106
-177 106 -154Q106 -124 108 -77T110 0Z" />
<glyph unicode="\" glyph-name="backslash" horiz-adv-x="500" d="M26 750H98L454 -83H382L26 750Z" />
<glyph unicode="]" glyph-name="bracketright" horiz-adv-x="437" d="M252 -46Q255 -5 255 83V391Q255 479 252 520L248 574Q246 601 237 608T199 616Q182 616 150 611T101 606Q45 606 45 639Q45 674 98 674Q121 674 148 671T225 668Q238 668 263 670T302 673Q322
673 328 659Q331 651 331 628Q331 597 329 552T327 388V86Q327 -30 329 -77T331 -154Q331 -186 324 -192T302 -199Q289 -199 264 -197T226 -194Q174 -194 148 -197T98 -200Q45 -200 45 -165Q45 -132 101 -132Q116 -132 148 -136T199 -141Q227 -141 236 -134T248
-100L252 -46Z" />
<glyph unicode="^" glyph-name="asciicircum" horiz-adv-x="500" d="M249 610L104 365H25L202 669H298L475 365H395L249 610Z" />
<glyph unicode="_" glyph-name="underscore" horiz-adv-x="500" d="M0 -133V-67H500V-133H0Z" />
<glyph unicode="`" glyph-name="grave" horiz-adv-x="492" d="M169 699Q182 699 198 689L324 610Q345 597 345 584Q345 560 324 560Q325 560 310 563L168 625Q133 640 133 663Q133 678 143 688T169 699Z" />
<glyph unicode="a" glyph-name="a" horiz-adv-x="564" d="M469 -13Q387 -13 368 58Q317 -17 208 -17Q127 -17 79 23T30 130Q30 213 101 252Q128 267 147 271T226 283Q310 292 335 308T361 367Q361 408 333 431T253 455Q208 455 169 430Q154 420 154 409Q154 405
163 399Q177 389 177 365Q177 345 163 332T126 319Q100 319 83 337T65 381Q65 437 120 477T255 517Q437 517 437 342V140Q437 92 439 83Q445 48 473 48Q508 48 508 112V161Q508 193 539 193Q572 193 572 145V140L571 83Q569 -13 469 -13ZM358 186L359 257Q337 237
313 229T225 215Q111 204 111 131Q111 93 138 71T213 49Q280 49 318 85T358 186Z" />
<glyph unicode="b" glyph-name="b" horiz-adv-x="564" d="M169 638Q161 555 160 441Q192 483 225 500T308 517Q408 517 467 447T526 261Q526 134 464 59T295 -17Q192 -17 146 60Q150 31 150 28Q150 -8 115 -8T80 42Q80 56 81 63Q81 86 82 112L85 189L87 290L85
557Q84 594 78 607T55 620Q52 620 29 616Q18 614 10 614Q-24 614 -24 646Q-24 679 16 679Q28 679 36 678L60 675Q76 673 86 673Q97 673 117 676T147 680Q169 680 169 652V638ZM168 348Q161 316 161 258Q161 159 177 122Q208 49 295 49Q364 49 404 103T445 250Q445
344 407 397T301 451Q254 451 216 422T168 348Z" />
<glyph unicode="c" glyph-name="c" horiz-adv-x="510" d="M330 330Q330 370 380 376Q375 411 347 431T273 451Q204 451 162 396T120 250Q120 156 159 103T269 49Q313 49 345 74T390 143Q400 178 402 183Q413 203 434 203Q451 203 462 192T473 164Q473 139 457
104T419 46Q360 -17 266 -17Q164 -17 102 55T39 244Q39 368 103 442T275 517Q355 517 408 474T461 363Q461 326 441 302T388 278Q363 278 347 293T330 330Z" />
<glyph unicode="d" glyph-name="d" horiz-adv-x="600" d="M263 517Q362 517 411 440V541Q411 581 409 590Q404 621 381 621Q373 621 359 618T336 615Q299 615 299 647Q299 680 349 680Q357 680 378 678Q410 675 411 675Q420 675 437 677T463 679Q491 679 491 639V628Q490
625 489 575Q489 569 486 498Q484 448 484 422V324L486 157Q487 91 492 75T516 59Q529 59 536 61Q552 63 558 63Q595 63 595 30Q595 -4 550 -4Q540 -4 520 -2T489 1Q486 1 466 -1Q454 -4 445 -4Q418 -4 418 32V37L419 54Q366 -17 265 -17Q163 -17 101 57T39 251Q39
372 100 444T263 517ZM405 164Q409 197 409 249Q409 316 404 340Q395 390 361 418Q321 451 269 451Q199 451 160 398T120 253Q120 158 161 104T273 49Q327 49 363 80T405 164Z" />
<glyph unicode="e" glyph-name="e" horiz-adv-x="528" d="M493 294Q493 256 488 248T459 239H141Q128 239 124 236T120 224Q120 149 165 99T277 49Q321 49 357 73T405 134L414 163Q421 187 447 187Q484 187 484 149Q484 84 418 34T268 -17Q163 -17 101 53T39 243Q39
365 105 441T277 517Q371 517 432 454T493 294ZM130 320Q130 306 152 306H391Q412 306 412 320Q412 373 372 412T278 451Q222 451 176 411T130 320Z" />
<glyph unicode="f" glyph-name="f" horiz-adv-x="346" d="M335 591Q335 605 345 616Q328 632 295 632Q252 632 228 605T203 528V510Q203 497 216 497H294Q327 497 327 461T294 425H220Q203 425 203 407V127Q203 90 204 84Q209 57 229 57Q234 57 254 62Q268 64
274 64Q308 64 308 31Q308 -4 267 -4Q250 -4 216 0T164 4Q134 4 110 1Q71 -4 60 -4Q17 -4 17 31Q17 44 27 54T52 64Q62 64 74 61T97 57Q116 57 121 81T127 197L128 407Q128 425 110 425H60Q25 425 25 462Q25 497 61 497H118Q131 497 131 510V528Q131 607 173 649T292
691Q355 691 393 666T431 597Q431 575 417 562T382 548Q362 548 349 560T335 591Z" />
<glyph unicode="g" glyph-name="g" horiz-adv-x="546" d="M276 517Q302 517 335 509Q340 607 449 607Q495 607 526 583T557 522Q557 498 542 481T505 464Q489 464 477 475T465 501Q465 517 487 534Q471 554 446 554Q393 554 392 488Q468 437 468 351Q468 282 416
236T286 190Q231 190 172 216Q156 223 145 223Q131 223 120 211T109 181Q109 129 214 129H220Q228 129 238 130H250Q345 130 404 112Q459 95 491 59T523 -22Q523 -95 456 -137T273 -180T93 -140T27 -30Q27 51 118 85Q37 117 37 181Q37 251 118 277Q92 312 92 359Q92
427 144 472T276 517ZM279 451Q235 451 204 425T170 360V354Q170 310 200 283T278 256Q328 256 359 283T391 352Q391 395 359 423T279 451ZM280 63Q200 63 154 39T108 -26T153 -90T274 -114Q354 -114 400 -90T447 -26Q447 16 403 39T280 63Z" />
<glyph unicode="h" glyph-name="h" horiz-adv-x="637" d="M196 644L192 450Q232 488 265 502T343 517Q429 517 481 468T533 339V172Q533 113 534 107Q538 57 560 57Q568 57 583 61Q589 62 599 62Q636 62 636 29T588 -4Q575 -4 550 -1Q508 4 482 4T442 2Q400 -4
390 -4Q372 -4 360 6T348 33Q348 46 358 55T383 64Q394 64 409 59Q418 56 426 56Q456 56 457 121Q457 133 458 168L459 211V265Q459 367 439 402Q410 454 337 454Q258 454 222 400Q197 363 196 281L195 209Q195 203 194 189V170Q194 113 195 104Q200 55 224 55Q232
55 246 58T268 62Q300 62 300 31Q300 -4 256 -4Q242 -4 214 -1Q176 3 149 3Q132 3 102 0Q62 -4 51 -4Q10 -4 10 32Q10 62 48 62Q61 62 67 60Q84 57 91 57Q107 57 112 87T119 212L120 391Q120 541 114 580T86 620Q79 620 65 617T43 614Q9 614 9 646Q9 660 21 670T50
680Q55 680 84 677Q103 675 125 675Q134 675 150 677T173 679Q196 679 196 646V644Z" />
<glyph unicode="i" glyph-name="i" horiz-adv-x="310" d="M201 290V160Q201 110 202 101Q207 56 229 56Q234 56 254 61Q259 63 269 63Q307 63 307 30Q307 16 295 6T263 -4Q247 -4 215 0T166 5Q140 5 108 1Q69 -4 56 -4Q16 -4 16 30Q16 63 50 63Q58 63 73 60T97
57Q121 57 126 121V208V290V377Q121 440 96 440Q88 440 74 437T52 433Q16 433 16 465Q16 499 60 499Q79 499 87 498Q119 494 128 494Q136 494 152 496T177 499Q206 499 206 460Q206 456 205 448T204 436Q203 428 202 374Q201 333 201 290ZM172 552T149 552T110
568T93 608T109 647T149 663T188 647T205 608T189 569Z" />
<glyph unicode="j" glyph-name="j" horiz-adv-x="291" d="M-16 -82Q-16 -103 -34 -121Q-7 -141 21 -141Q77 -141 101 -108T126 -2L127 312Q127 400 122 420T95 441Q84 441 67 437Q58 434 49 434Q17 434 17 466Q17 499 59 499Q74 499 85 498Q117 495 130 495Q138
495 155 497T180 500Q209 500 209 468Q209 463 208 448Q207 430 207 419Q206 403 204 347Q202 284 202 250V24Q202 -36 197 -65Q188 -112 161 -145Q113 -203 27 -203Q-33 -203 -73 -173T-113 -98Q-113 -73 -99 -57T-62 -40Q-43 -40 -30 -52T-16 -82ZM175 552T152
552T113 568T96 608T112 647T152 663T192 647T209 608Q209 585 192 569Z" />
<glyph unicode="k" glyph-name="k" horiz-adv-x="619" d="M195 253L366 413Q375 421 375 431T362 441Q352 441 333 437T304 433Q269 433 269 465Q269 500 313 500Q324 500 341 498Q410 490 446 490Q466 490 480 492L521 498Q535 500 544 500Q593 500 593 466Q593
434 559 434Q551 434 537 436T514 438Q489 438 462 413L357 317Q346 307 346 301Q346 296 354 286L482 120Q531 57 552 57Q557 57 568 59T587 62Q623 62 623 30Q623 -4 577 -4Q559 -4 524 0T470 4Q454 4 424 0T378 -4Q340 -4 340 30Q340 62 376 62Q386 62 392 61Q410
56 415 56Q424 56 424 63V66Q423 67 423 68L413 82L400 101L300 234Q290 247 284 247Q280 247 269 237L195 171V148Q195 100 196 94Q201 59 224 59Q234 59 241 60T260 62Q294 62 294 29T256 -4Q239 -4 205 0T152 5Q129 5 99 1Q61 -4 48 -4Q9 -4 9 29T47 62Q55 62
66 60Q82 57 88 57Q112 57 115 95L118 134V538Q116 592 111 606T90 621Q85 621 71 619Q57 614 43 614Q10 614 10 645Q10 679 49 679Q69 679 77 678Q102 675 110 675T133 677T156 680H163Q195 680 195 639V253Z" />
<glyph unicode="l" glyph-name="l" horiz-adv-x="309" d="M195 418L196 107Q197 56 223 56Q229 56 248 61Q260 63 264 63Q297 63 297 29Q297 -4 256 -4Q240 -4 205 0T151 4Q135 4 103 0T56 -4H51Q9 -4 9 32Q9 63 43 63H50Q56 62 59 62Q84 58 88 58Q106 58 110
73T116 154L117 224L120 379L119 557Q118 587 116 597Q109 620 88 620Q85 620 62 616Q51 614 44 614Q10 614 10 646Q10 679 50 679Q61 679 69 678L93 675Q109 673 120 673Q130 673 150 676T180 680Q203 680 203 651Q203 641 202 636Q195 559 195 418Z" />
<glyph unicode="m" glyph-name="m" horiz-adv-x="928" d="M189 470V441Q225 484 257 500T337 517Q435 517 481 441Q515 483 550 500T640 517Q697 517 742 493Q792 466 811 417Q824 384 824 313V216L823 141Q823 100 824 91Q829 55 850 55Q857 55 871 58T892 61Q927
61 927 31Q927 -4 887 -4Q872 -4 842 -1T795 3Q778 3 746 0T696 -4Q654 -4 654 31Q654 61 686 61Q690 61 706 59Q712 57 722 57Q739 57 743 74T749 159L750 220V286Q750 355 740 386T700 436T634 454Q563 454 535 405Q513 366 513 269V198Q513 104 517 81T541 57Q547
57 558 59T576 62Q590 62 599 53T609 29Q609 -4 562 -4Q547 -4 518 0T473 4Q452 4 427 0T383 -4Q342 -4 342 30Q342 61 372 61Q383 61 389 59Q403 56 410 56Q434 56 435 107L436 154Q437 176 437 197Q438 215 438 216V299Q438 386 415 420T331 454Q265 454 230
406Q201 367 201 270V137Q201 97 202 90Q206 56 224 56Q229 56 245 60Q247 60 251 61H258Q297 61 297 28Q297 -4 252 -4Q235 -4 210 -1Q176 3 152 3Q140 3 108 0Q65 -4 56 -4Q16 -4 16 30Q16 61 54 61H60Q64 60 66 60L91 55Q92 54 95 54Q122 54 124 103L126 160V313Q126
398 122 419T97 440Q93 440 69 435Q59 433 53 433Q16 433 16 465Q16 499 57 499Q68 499 87 497T120 495Q125 495 131 496H138L162 499H165Q189 499 189 470Z" />
<glyph unicode="n" glyph-name="n" horiz-adv-x="637" d="M192 469V441Q252 517 352 517Q406 517 454 490T519 421Q533 387 533 332V142Q533 99 534 91Q539 57 561 57Q570 57 584 59T605 62Q618 62 627 53T637 31Q637 16 625 6T596 -4Q582 -4 550 0T490 4Q464
4 447 2Q397 -4 394 -4Q354 -4 354 31Q354 62 388 62Q396 62 406 60Q425 56 430 56Q454 56 456 111L458 162L459 223V299Q459 352 454 372Q445 410 415 431Q382 454 340 454Q260 454 225 397Q201 358 201 264V131Q201 87 207 71T229 55Q237 55 251 59T274 63Q305
63 305 29Q305 -4 265 -4Q257 -4 213 2Q191 5 164 5Q143 5 108 1Q64 -4 58 -4Q16 -4 16 30Q16 62 48 62Q53 62 66 59T93 56Q123 56 124 114L126 225V346L124 381Q122 415 116 427T93 440Q86 440 73 438T52 435Q16 435 16 467Q16 500 61 500Q67 500 71 499L108 495Q124
495 136 497Q162 499 163 499Q192 499 192 469Z" />
<glyph unicode="o" glyph-name="o" horiz-adv-x="546" d="M269 -17Q164 -17 101 55T38 250T101 444T272 517Q381 517 444 446T507 253T442 57T269 -17ZM274 451Q204 451 164 402T120 263V250Q120 156 159 103T270 49Q343 49 384 102T426 251Q426 451 274 451Z" />
<glyph unicode="p" glyph-name="p" horiz-adv-x="600" d="M191 471V439Q247 517 344 517Q444 517 503 448T562 261Q562 134 500 59T332 -17Q245 -17 191 44V-39Q191 -77 193 -88Q199 -119 222 -119Q229 -119 243 -116T264 -113Q296 -113 296 -146T254 -179Q239
-179 209 -175Q187 -172 143 -172Q119 -172 103 -174Q63 -179 50 -179Q33 -179 21 -169T9 -144Q9 -112 43 -112Q49 -112 62 -115Q79 -119 87 -119Q106 -119 110 -100T116 9L117 395Q116 441 91 441Q84 441 70 438T47 434Q10 434 10 467Q10 499 54 499Q65 499 78
498Q103 496 115 496Q124 496 141 497T166 499Q191 499 191 471ZM206 349Q197 310 196 254Q196 250 195 239V225Q195 158 206 128T249 73T330 49Q402 49 441 101T481 251Q481 451 339 451Q291 451 254 422T206 349Z" />
<glyph unicode="q" glyph-name="q" horiz-adv-x="564" d="M399 -5V40Q343 -17 261 -17Q161 -17 100 56T39 252T97 445T256 517Q349 517 411 442Q409 462 409 461Q409 504 443 504T477 452V431L473 312V121L476 -22Q477 -83 483 -101T509 -120Q508 -120 533 -115Q543
-113 549 -113Q581 -113 581 -146T544 -179Q526 -179 490 -176T436 -173T383 -176T330 -179Q293 -179 293 -146Q293 -114 327 -114Q339 -114 359 -118Q369 -120 372 -120Q394 -120 398 -70Q399 -64 399 -5ZM398 224V252Q396 319 389 348Q376 397 336 426Q302 451
260 451Q194 451 157 399T120 254Q120 157 158 103T264 49Q315 49 352 81T396 163Q398 180 398 224Z" />
<glyph unicode="r" glyph-name="r" horiz-adv-x="491" d="M190 471V444Q242 517 329 517Q399 517 442 478T486 376Q486 332 464 305T406 277Q383 277 367 291T351 325Q351 341 363 353T391 366Q394 366 404 363Q410 375 410 385Q410 414 385 434T321 454Q243 454
217 384Q201 341 201 254V188Q201 121 202 113Q207 56 233 56Q246 56 260 60Q271 63 279 63Q311 63 311 31Q311 -4 270 -4H266Q251 -4 221 -1T175 3Q135 3 112 1L56 -4Q15 -4 15 31Q15 62 53 62Q63 62 68 61L83 58Q93 56 97 56Q122 56 124 102L126 153L123 380Q120
439 93 439Q85 439 71 436T49 433Q16 433 16 465Q16 500 59 500Q69 500 89 498T119 495Q127 495 145 497Q153 499 164 499Q190 499 190 471Z" />
<glyph unicode="s" glyph-name="s" horiz-adv-x="492" d="M250 517Q317 517 362 482V486Q362 523 394 523Q427 523 427 491Q427 485 425 461Q421 441 421 421Q421 409 424 386T428 351Q428 313 395 313Q363 313 362 345L361 378Q360 408 327 429T248 451Q202 451
171 428T140 369Q140 305 228 293L286 285Q456 262 456 144Q456 72 401 28T257 -17Q174 -17 113 30Q114 20 114 11Q114 -25 80 -25Q43 -25 43 16Q43 9 49 68Q51 82 51 96Q51 120 47 141T43 174Q43 209 75 209Q96 209 101 199T108 146T153 76T265 49Q314 49 346
74T378 137Q378 205 270 216Q167 227 113 256T59 360Q59 430 112 473T250 517Z" />
<glyph unicode="t" glyph-name="t" horiz-adv-x="400" d="M314 138L316 202Q317 243 352 243T387 197Q387 88 359 45Q321 -13 234 -13Q154 -13 120 38Q95 75 95 164V404Q95 425 76 425H44Q28 425 18 435T7 461Q7 475 17 486T41 497H80Q97 497 97 516V619Q97 657
136 657Q172 657 172 619V512Q172 497 190 497H299Q337 497 337 462Q337 425 296 425H186Q172 425 172 404V158Q172 53 241 53Q311 53 314 138Z" />
<glyph unicode="u" glyph-name="u" horiz-adv-x="619" d="M447 25V56Q394 -17 290 -17Q172 -17 126 56Q106 88 104 131Q103 152 103 219V302Q103 439 74 439Q68 439 55 437T35 434Q0 434 0 467Q0 499 43 499Q53 499 72 497T102 495Q111 495 133 498Q148 500 150
500Q181 500 181 462V441L180 376L177 302V237Q177 150 191 112Q214 49 301 49Q344 49 377 68T423 120Q439 159 439 268V323V388Q434 436 413 436Q402 436 395 434H383Q348 434 348 465Q348 500 387 500Q396 500 414 498T442 496Q450 496 466 497T490 499Q520 499
520 467Q520 453 518 445Q513 407 513 333V179Q513 118 514 111Q519 58 542 58Q549 58 562 60T582 63Q616 63 616 30Q616 -4 574 -4Q565 -4 548 -2Q523 1 517 1Q514 1 496 -1Q484 -4 475 -4Q447 -4 447 25Z" />
<glyph unicode="v" glyph-name="v" horiz-adv-x="601" d="M188 381L305 69L418 381Q428 409 428 417Q428 439 407 439Q399 439 384 436T360 432Q327 432 327 465Q327 500 375 500H383Q388 499 391 499L433 493Q447 491 462 491Q482 491 528 496Q556 499 568 499Q611
499 611 466T576 433Q565 433 560 435Q545 438 539 438Q521 438 502 390L361 30Q343 -16 300 -16Q259 -16 241 30L97 400Q83 437 64 437Q57 437 43 434T22 431Q-11 431 -11 462Q-11 498 35 498Q43 498 47 497L89 493Q110 491 131 491Q148 491 181 494L214 497Q219
498 228 498Q272 498 272 464Q272 432 234 432Q222 432 217 433Q198 437 193 437Q177 437 177 423Q177 416 181 403L188 381Z" />
<glyph unicode="w" glyph-name="w" horiz-adv-x="801" d="M179 360L252 56L330 408Q342 464 356 482T401 501Q432 501 446 482T473 408L548 56L622 360Q629 389 629 410V412Q629 439 606 439Q597 439 580 436T554 432Q517 432 517 465Q517 500 566 500Q573 500
581 499L622 494Q638 492 672 492Q699 492 724 495L757 499Q761 500 768 500Q811 500 811 466Q811 433 778 433Q767 433 761 435Q745 437 743 437Q716 437 687 326L619 69Q607 22 591 4T547 -15Q494 -15 476 69L401 425L323 75Q312 25 295 5T249 -16Q202 -16 186
46L90 406Q81 438 62 438Q56 438 44 435Q28 433 22 433Q-11 433 -11 465Q-11 500 34 500Q42 500 45 499L88 493Q102 491 125 491Q153 491 189 495Q234 500 241 500Q285 500 285 466Q285 433 248 433Q241 433 223 435Q210 439 198 439Q172 439 172 409Q172 389 179
360Z" />
<glyph unicode="x" glyph-name="x" horiz-adv-x="637" d="M129 100L268 259L129 423Q115 439 95 439Q87 439 83 438L66 434Q62 433 52 433Q19 433 19 465Q19 499 60 499H63Q64 499 113 495Q138 493 155 493T204 496T252 499Q293 499 293 465Q293 433 255 433Q247
433 240 435L225 439H219Q215 439 215 437Q217 431 224 423L315 313L410 423Q419 433 419 437Q418 439 414 439Q409 439 398 436T380 433Q344 433 344 467Q344 500 386 500Q384 500 439 495Q461 493 486 493T539 496T579 499Q623 499 623 465Q623 432 589 432Q581
432 566 436T543 440Q519 440 477 392L361 260L517 76Q531 59 551 59Q557 59 569 61T588 63Q624 63 624 31Q624 -4 582 -4H574L535 1Q519 3 487 3Q460 3 433 0L397 -4H386Q339 -4 339 28Q339 63 376 63Q389 63 413 59Q415 58 420 58Q430 58 430 66Q430 69 427 72L424
76L313 206L200 76Q193 68 193 64Q193 59 203 59Q210 59 224 61T245 63Q288 63 288 28Q288 -4 245 -4H231L191 0Q161 3 138 3Q120 3 95 0Q61 -4 45 -4Q3 -4 3 30Q3 63 39 63Q45 63 57 62T75 60Q94 60 129 100Z" />
<glyph unicode="y" glyph-name="y" horiz-adv-x="601" d="M196 404L311 66L433 399Q438 413 438 421Q438 438 415 438Q403 438 396 436Q380 434 375 434Q342 434 342 466Q342 500 385 500Q391 500 405 498L441 493Q455 491 471 491Q488 491 521 495T571 499Q614
499 614 466Q614 434 581 434Q571 434 566 436Q553 439 548 439Q529 439 509 388L373 48Q328 -65 288 -116Q220 -203 118 -203Q57 -203 16 -172T-26 -97Q-26 -66 -8 -47T39 -27Q62 -27 77 -40T92 -74Q92 -106 63 -115Q78 -137 120 -137Q173 -137 215 -98T258 -9Q258
16 231 84L121 362L109 394Q92 439 70 439Q64 439 49 436T28 433Q-7 433 -7 465Q-7 499 39 499Q54 499 62 498L102 493H110Q117 492 122 492Q158 492 199 496Q230 499 240 499Q282 499 282 466T244 433Q238 433 225 435T206 438Q192 438 192 424Q192 416 196 404Z"
/>
<glyph unicode="z" glyph-name="z" horiz-adv-x="528" d="M59 103L385 433H232Q157 433 138 429T119 405Q119 397 121 387Q126 361 126 338Q126 300 93 300Q59 300 59 344Q59 363 60 370Q64 400 64 413Q64 423 61 442T57 472Q57 503 107 503Q123 503 150 502Q181
500 193 500L253 499H423Q488 499 488 453Q488 432 450 394L126 67H364Q423 67 423 101V120Q423 137 421 149Q419 187 419 185Q419 202 429 213T454 225Q486 225 486 187Q486 170 484 152Q480 116 480 100Q480 89 482 68T485 36Q485 -3 441 -2L380 0H92Q67 0 51
15T35 53Q35 79 59 103Z" />
<glyph unicode="{" glyph-name="braceleft" horiz-adv-x="500" d="M275 361Q275 312 262 288T214 244Q248 226 261 200T275 126V-35Q275 -90 294 -107T371 -125V-188H342Q266 -188 234 -155T202 -41V124Q202 167 189 188T145 217V276Q202 292 202 365V541Q202
614 235 646T343 678H371V615Q313 614 294 597T275 528V361Z" />
<glyph unicode="|" glyph-name="bar" horiz-adv-x="500" d="M213 -250V750H287V-250H213Z" />
<glyph unicode="}" glyph-name="braceright" horiz-adv-x="500" d="M236 129Q236 177 249 202T297 246Q263 264 250 290T236 364V525Q236 580 217 597T140 615V678H168Q244 678 276 645T309 531V366Q309 287 366 273V214Q309 198 309 125V-51Q309 -124 276 -156T168
-188H140V-125Q198 -124 217 -107T236 -38V129Z" />
<glyph unicode="~" glyph-name="asciitilde" horiz-adv-x="667" d="M225 654Q176 654 136 582L93 610Q124 674 154 699T230 725Q268 725 342 691Q409 660 439 660Q489 660 529 727L574 701Q518 589 430 589Q395 589 346 611L290 636Q250 654 225 654Z" />
</font>
</defs>
</svg>
